<?xml version="1.0" encoding="utf-8" standalone="no"?>
<!DOCTYPE svg PUBLIC "-//W3C//DTD SVG 1.1//EN"
  "http://www.w3.org/Graphics/SVG/1.1/DTD/svg11.dtd">
<!-- Created with matplotlib (http://matplotlib.org/) -->
<svg height="490.833125pt" version="1.1" viewBox="0 0 657.025 490.833125" width="657.025pt" xmlns="http://www.w3.org/2000/svg" xmlns:xlink="http://www.w3.org/1999/xlink">
 <defs>
  <style type="text/css">
*{stroke-linecap:butt;stroke-linejoin:round;}
  </style>
 </defs>
 <g id="figure_1">
  <g id="patch_1">
   <path d="M 0 490.833125 
L 657.025 490.833125 
L 657.025 -0 
L 0 -0 
z
" style="fill:none;"/>
  </g>
  <g id="axes_1">
   <g id="patch_2">
    <path d="M 23.425 376.56 
L 308.152273 376.56 
L 308.152273 50.4 
L 23.425 50.4 
z
" style="fill:#f0f0f0;"/>
   </g>
   <g id="matplotlib.axis_1">
    <g id="xtick_1">
     <g id="line2d_1">
      <path clip-path="url(#p3f5370bc78)" d="M 37.661364 376.56 
L 37.661364 50.4 
" style="fill:none;stroke:#cbcbcb;"/>
     </g>
     <g id="line2d_2"/>
     <g id="text_1">
      <!-- bitcoin -->
      <defs>
       <path d="M 48.6875 27.296875 
Q 48.6875 37.203125 44.609375 42.84375 
Q 40.53125 48.484375 33.40625 48.484375 
Q 26.265625 48.484375 22.1875 42.84375 
Q 18.109375 37.203125 18.109375 27.296875 
Q 18.109375 17.390625 22.1875 11.75 
Q 26.265625 6.109375 33.40625 6.109375 
Q 40.53125 6.109375 44.609375 11.75 
Q 48.6875 17.390625 48.6875 27.296875 
z
M 18.109375 46.390625 
Q 20.953125 51.265625 25.265625 53.625 
Q 29.59375 56 35.59375 56 
Q 45.5625 56 51.78125 48.09375 
Q 58.015625 40.1875 58.015625 27.296875 
Q 58.015625 14.40625 51.78125 6.484375 
Q 45.5625 -1.421875 35.59375 -1.421875 
Q 29.59375 -1.421875 25.265625 0.953125 
Q 20.953125 3.328125 18.109375 8.203125 
L 18.109375 0 
L 9.078125 0 
L 9.078125 75.984375 
L 18.109375 75.984375 
z
" id="DejaVuSans-62"/>
       <path d="M 9.421875 54.6875 
L 18.40625 54.6875 
L 18.40625 0 
L 9.421875 0 
z
M 9.421875 75.984375 
L 18.40625 75.984375 
L 18.40625 64.59375 
L 9.421875 64.59375 
z
" id="DejaVuSans-69"/>
       <path d="M 18.3125 70.21875 
L 18.3125 54.6875 
L 36.8125 54.6875 
L 36.8125 47.703125 
L 18.3125 47.703125 
L 18.3125 18.015625 
Q 18.3125 11.328125 20.140625 9.421875 
Q 21.96875 7.515625 27.59375 7.515625 
L 36.8125 7.515625 
L 36.8125 0 
L 27.59375 0 
Q 17.1875 0 13.234375 3.875 
Q 9.28125 7.765625 9.28125 18.015625 
L 9.28125 47.703125 
L 2.6875 47.703125 
L 2.6875 54.6875 
L 9.28125 54.6875 
L 9.28125 70.21875 
z
" id="DejaVuSans-74"/>
       <path d="M 48.78125 52.59375 
L 48.78125 44.1875 
Q 44.96875 46.296875 41.140625 47.34375 
Q 37.3125 48.390625 33.40625 48.390625 
Q 24.65625 48.390625 19.8125 42.84375 
Q 14.984375 37.3125 14.984375 27.296875 
Q 14.984375 17.28125 19.8125 11.734375 
Q 24.65625 6.203125 33.40625 6.203125 
Q 37.3125 6.203125 41.140625 7.25 
Q 44.96875 8.296875 48.78125 10.40625 
L 48.78125 2.09375 
Q 45.015625 0.34375 40.984375 -0.53125 
Q 36.96875 -1.421875 32.421875 -1.421875 
Q 20.0625 -1.421875 12.78125 6.34375 
Q 5.515625 14.109375 5.515625 27.296875 
Q 5.515625 40.671875 12.859375 48.328125 
Q 20.21875 56 33.015625 56 
Q 37.15625 56 41.109375 55.140625 
Q 45.0625 54.296875 48.78125 52.59375 
z
" id="DejaVuSans-63"/>
       <path d="M 30.609375 48.390625 
Q 23.390625 48.390625 19.1875 42.75 
Q 14.984375 37.109375 14.984375 27.296875 
Q 14.984375 17.484375 19.15625 11.84375 
Q 23.34375 6.203125 30.609375 6.203125 
Q 37.796875 6.203125 41.984375 11.859375 
Q 46.1875 17.53125 46.1875 27.296875 
Q 46.1875 37.015625 41.984375 42.703125 
Q 37.796875 48.390625 30.609375 48.390625 
z
M 30.609375 56 
Q 42.328125 56 49.015625 48.375 
Q 55.71875 40.765625 55.71875 27.296875 
Q 55.71875 13.875 49.015625 6.21875 
Q 42.328125 -1.421875 30.609375 -1.421875 
Q 18.84375 -1.421875 12.171875 6.21875 
Q 5.515625 13.875 5.515625 27.296875 
Q 5.515625 40.765625 12.171875 48.375 
Q 18.84375 56 30.609375 56 
z
" id="DejaVuSans-6f"/>
       <path d="M 54.890625 33.015625 
L 54.890625 0 
L 45.90625 0 
L 45.90625 32.71875 
Q 45.90625 40.484375 42.875 44.328125 
Q 39.84375 48.1875 33.796875 48.1875 
Q 26.515625 48.1875 22.3125 43.546875 
Q 18.109375 38.921875 18.109375 30.90625 
L 18.109375 0 
L 9.078125 0 
L 9.078125 54.6875 
L 18.109375 54.6875 
L 18.109375 46.1875 
Q 21.34375 51.125 25.703125 53.5625 
Q 30.078125 56 35.796875 56 
Q 45.21875 56 50.046875 50.171875 
Q 54.890625 44.34375 54.890625 33.015625 
z
" id="DejaVuSans-6e"/>
      </defs>
      <g transform="translate(40.420739 413.839687)rotate(-90)scale(0.1 -0.1)">
       <use xlink:href="#DejaVuSans-62"/>
       <use x="63.476562" xlink:href="#DejaVuSans-69"/>
       <use x="91.259766" xlink:href="#DejaVuSans-74"/>
       <use x="130.46875" xlink:href="#DejaVuSans-63"/>
       <use x="185.449219" xlink:href="#DejaVuSans-6f"/>
       <use x="246.630859" xlink:href="#DejaVuSans-69"/>
       <use x="274.414062" xlink:href="#DejaVuSans-6e"/>
      </g>
     </g>
    </g>
    <g id="xtick_2">
     <g id="line2d_3">
      <path clip-path="url(#p3f5370bc78)" d="M 66.134091 376.56 
L 66.134091 50.4 
" style="fill:none;stroke:#cbcbcb;"/>
     </g>
     <g id="line2d_4"/>
     <g id="text_2">
      <!-- ethereum -->
      <defs>
       <path d="M 56.203125 29.59375 
L 56.203125 25.203125 
L 14.890625 25.203125 
Q 15.484375 15.921875 20.484375 11.0625 
Q 25.484375 6.203125 34.421875 6.203125 
Q 39.59375 6.203125 44.453125 7.46875 
Q 49.3125 8.734375 54.109375 11.28125 
L 54.109375 2.78125 
Q 49.265625 0.734375 44.1875 -0.34375 
Q 39.109375 -1.421875 33.890625 -1.421875 
Q 20.796875 -1.421875 13.15625 6.1875 
Q 5.515625 13.8125 5.515625 26.8125 
Q 5.515625 40.234375 12.765625 48.109375 
Q 20.015625 56 32.328125 56 
Q 43.359375 56 49.78125 48.890625 
Q 56.203125 41.796875 56.203125 29.59375 
z
M 47.21875 32.234375 
Q 47.125 39.59375 43.09375 43.984375 
Q 39.0625 48.390625 32.421875 48.390625 
Q 24.90625 48.390625 20.390625 44.140625 
Q 15.875 39.890625 15.1875 32.171875 
z
" id="DejaVuSans-65"/>
       <path d="M 54.890625 33.015625 
L 54.890625 0 
L 45.90625 0 
L 45.90625 32.71875 
Q 45.90625 40.484375 42.875 44.328125 
Q 39.84375 48.1875 33.796875 48.1875 
Q 26.515625 48.1875 22.3125 43.546875 
Q 18.109375 38.921875 18.109375 30.90625 
L 18.109375 0 
L 9.078125 0 
L 9.078125 75.984375 
L 18.109375 75.984375 
L 18.109375 46.1875 
Q 21.34375 51.125 25.703125 53.5625 
Q 30.078125 56 35.796875 56 
Q 45.21875 56 50.046875 50.171875 
Q 54.890625 44.34375 54.890625 33.015625 
z
" id="DejaVuSans-68"/>
       <path d="M 41.109375 46.296875 
Q 39.59375 47.171875 37.8125 47.578125 
Q 36.03125 48 33.890625 48 
Q 26.265625 48 22.1875 43.046875 
Q 18.109375 38.09375 18.109375 28.8125 
L 18.109375 0 
L 9.078125 0 
L 9.078125 54.6875 
L 18.109375 54.6875 
L 18.109375 46.1875 
Q 20.953125 51.171875 25.484375 53.578125 
Q 30.03125 56 36.53125 56 
Q 37.453125 56 38.578125 55.875 
Q 39.703125 55.765625 41.0625 55.515625 
z
" id="DejaVuSans-72"/>
       <path d="M 8.5 21.578125 
L 8.5 54.6875 
L 17.484375 54.6875 
L 17.484375 21.921875 
Q 17.484375 14.15625 20.5 10.265625 
Q 23.53125 6.390625 29.59375 6.390625 
Q 36.859375 6.390625 41.078125 11.03125 
Q 45.3125 15.671875 45.3125 23.6875 
L 45.3125 54.6875 
L 54.296875 54.6875 
L 54.296875 0 
L 45.3125 0 
L 45.3125 8.40625 
Q 42.046875 3.421875 37.71875 1 
Q 33.40625 -1.421875 27.6875 -1.421875 
Q 18.265625 -1.421875 13.375 4.4375 
Q 8.5 10.296875 8.5 21.578125 
z
M 31.109375 56 
z
" id="DejaVuSans-75"/>
       <path d="M 52 44.1875 
Q 55.375 50.25 60.0625 53.125 
Q 64.75 56 71.09375 56 
Q 79.640625 56 84.28125 50.015625 
Q 88.921875 44.046875 88.921875 33.015625 
L 88.921875 0 
L 79.890625 0 
L 79.890625 32.71875 
Q 79.890625 40.578125 77.09375 44.375 
Q 74.3125 48.1875 68.609375 48.1875 
Q 61.625 48.1875 57.5625 43.546875 
Q 53.515625 38.921875 53.515625 30.90625 
L 53.515625 0 
L 44.484375 0 
L 44.484375 32.71875 
Q 44.484375 40.625 41.703125 44.40625 
Q 38.921875 48.1875 33.109375 48.1875 
Q 26.21875 48.1875 22.15625 43.53125 
Q 18.109375 38.875 18.109375 30.90625 
L 18.109375 0 
L 9.078125 0 
L 9.078125 54.6875 
L 18.109375 54.6875 
L 18.109375 46.1875 
Q 21.1875 51.21875 25.484375 53.609375 
Q 29.78125 56 35.6875 56 
Q 41.65625 56 45.828125 52.96875 
Q 50 49.953125 52 44.1875 
z
" id="DejaVuSans-6d"/>
      </defs>
      <g transform="translate(68.893466 428.963125)rotate(-90)scale(0.1 -0.1)">
       <use xlink:href="#DejaVuSans-65"/>
       <use x="61.523438" xlink:href="#DejaVuSans-74"/>
       <use x="100.732422" xlink:href="#DejaVuSans-68"/>
       <use x="164.111328" xlink:href="#DejaVuSans-65"/>
       <use x="225.634766" xlink:href="#DejaVuSans-72"/>
       <use x="266.716797" xlink:href="#DejaVuSans-65"/>
       <use x="328.240234" xlink:href="#DejaVuSans-75"/>
       <use x="391.619141" xlink:href="#DejaVuSans-6d"/>
      </g>
     </g>
    </g>
    <g id="xtick_3">
     <g id="line2d_5">
      <path clip-path="url(#p3f5370bc78)" d="M 94.606818 376.56 
L 94.606818 50.4 
" style="fill:none;stroke:#cbcbcb;"/>
     </g>
     <g id="line2d_6"/>
     <g id="text_3">
      <!-- bitcoin-cash -->
      <defs>
       <path d="M 4.890625 31.390625 
L 31.203125 31.390625 
L 31.203125 23.390625 
L 4.890625 23.390625 
z
" id="DejaVuSans-2d"/>
       <path d="M 34.28125 27.484375 
Q 23.390625 27.484375 19.1875 25 
Q 14.984375 22.515625 14.984375 16.5 
Q 14.984375 11.71875 18.140625 8.90625 
Q 21.296875 6.109375 26.703125 6.109375 
Q 34.1875 6.109375 38.703125 11.40625 
Q 43.21875 16.703125 43.21875 25.484375 
L 43.21875 27.484375 
z
M 52.203125 31.203125 
L 52.203125 0 
L 43.21875 0 
L 43.21875 8.296875 
Q 40.140625 3.328125 35.546875 0.953125 
Q 30.953125 -1.421875 24.3125 -1.421875 
Q 15.921875 -1.421875 10.953125 3.296875 
Q 6 8.015625 6 15.921875 
Q 6 25.140625 12.171875 29.828125 
Q 18.359375 34.515625 30.609375 34.515625 
L 43.21875 34.515625 
L 43.21875 35.40625 
Q 43.21875 41.609375 39.140625 45 
Q 35.0625 48.390625 27.6875 48.390625 
Q 23 48.390625 18.546875 47.265625 
Q 14.109375 46.140625 10.015625 43.890625 
L 10.015625 52.203125 
Q 14.9375 54.109375 19.578125 55.046875 
Q 24.21875 56 28.609375 56 
Q 40.484375 56 46.34375 49.84375 
Q 52.203125 43.703125 52.203125 31.203125 
z
" id="DejaVuSans-61"/>
       <path d="M 44.28125 53.078125 
L 44.28125 44.578125 
Q 40.484375 46.53125 36.375 47.5 
Q 32.28125 48.484375 27.875 48.484375 
Q 21.1875 48.484375 17.84375 46.4375 
Q 14.5 44.390625 14.5 40.28125 
Q 14.5 37.15625 16.890625 35.375 
Q 19.28125 33.59375 26.515625 31.984375 
L 29.59375 31.296875 
Q 39.15625 29.25 43.1875 25.515625 
Q 47.21875 21.78125 47.21875 15.09375 
Q 47.21875 7.46875 41.1875 3.015625 
Q 35.15625 -1.421875 24.609375 -1.421875 
Q 20.21875 -1.421875 15.453125 -0.5625 
Q 10.6875 0.296875 5.421875 2 
L 5.421875 11.28125 
Q 10.40625 8.6875 15.234375 7.390625 
Q 20.0625 6.109375 24.8125 6.109375 
Q 31.15625 6.109375 34.5625 8.28125 
Q 37.984375 10.453125 37.984375 14.40625 
Q 37.984375 18.0625 35.515625 20.015625 
Q 33.0625 21.96875 24.703125 23.78125 
L 21.578125 24.515625 
Q 13.234375 26.265625 9.515625 29.90625 
Q 5.8125 33.546875 5.8125 39.890625 
Q 5.8125 47.609375 11.28125 51.796875 
Q 16.75 56 26.8125 56 
Q 31.78125 56 36.171875 55.265625 
Q 40.578125 54.546875 44.28125 53.078125 
z
" id="DejaVuSans-73"/>
      </defs>
      <g transform="translate(97.366193 440.620938)rotate(-90)scale(0.1 -0.1)">
       <use xlink:href="#DejaVuSans-62"/>
       <use x="63.476562" xlink:href="#DejaVuSans-69"/>
       <use x="91.259766" xlink:href="#DejaVuSans-74"/>
       <use x="130.46875" xlink:href="#DejaVuSans-63"/>
       <use x="185.449219" xlink:href="#DejaVuSans-6f"/>
       <use x="246.630859" xlink:href="#DejaVuSans-69"/>
       <use x="274.414062" xlink:href="#DejaVuSans-6e"/>
       <use x="337.792969" xlink:href="#DejaVuSans-2d"/>
       <use x="373.876953" xlink:href="#DejaVuSans-63"/>
       <use x="428.857422" xlink:href="#DejaVuSans-61"/>
       <use x="490.136719" xlink:href="#DejaVuSans-73"/>
       <use x="542.236328" xlink:href="#DejaVuSans-68"/>
      </g>
     </g>
    </g>
    <g id="xtick_4">
     <g id="line2d_7">
      <path clip-path="url(#p3f5370bc78)" d="M 123.079545 376.56 
L 123.079545 50.4 
" style="fill:none;stroke:#cbcbcb;"/>
     </g>
     <g id="line2d_8"/>
     <g id="text_4">
      <!-- iota -->
      <g transform="translate(125.83892 399.005313)rotate(-90)scale(0.1 -0.1)">
       <use xlink:href="#DejaVuSans-69"/>
       <use x="27.783203" xlink:href="#DejaVuSans-6f"/>
       <use x="88.964844" xlink:href="#DejaVuSans-74"/>
       <use x="128.173828" xlink:href="#DejaVuSans-61"/>
      </g>
     </g>
    </g>
    <g id="xtick_5">
     <g id="line2d_9">
      <path clip-path="url(#p3f5370bc78)" d="M 151.552273 376.56 
L 151.552273 50.4 
" style="fill:none;stroke:#cbcbcb;"/>
     </g>
     <g id="line2d_10"/>
     <g id="text_5">
      <!-- ripple -->
      <defs>
       <path d="M 18.109375 8.203125 
L 18.109375 -20.796875 
L 9.078125 -20.796875 
L 9.078125 54.6875 
L 18.109375 54.6875 
L 18.109375 46.390625 
Q 20.953125 51.265625 25.265625 53.625 
Q 29.59375 56 35.59375 56 
Q 45.5625 56 51.78125 48.09375 
Q 58.015625 40.1875 58.015625 27.296875 
Q 58.015625 14.40625 51.78125 6.484375 
Q 45.5625 -1.421875 35.59375 -1.421875 
Q 29.59375 -1.421875 25.265625 0.953125 
Q 20.953125 3.328125 18.109375 8.203125 
z
M 48.6875 27.296875 
Q 48.6875 37.203125 44.609375 42.84375 
Q 40.53125 48.484375 33.40625 48.484375 
Q 26.265625 48.484375 22.1875 42.84375 
Q 18.109375 37.203125 18.109375 27.296875 
Q 18.109375 17.390625 22.1875 11.75 
Q 26.265625 6.109375 33.40625 6.109375 
Q 40.53125 6.109375 44.609375 11.75 
Q 48.6875 17.390625 48.6875 27.296875 
z
" id="DejaVuSans-70"/>
       <path d="M 9.421875 75.984375 
L 18.40625 75.984375 
L 18.40625 0 
L 9.421875 0 
z
" id="DejaVuSans-6c"/>
      </defs>
      <g transform="translate(154.311648 408.577188)rotate(-90)scale(0.1 -0.1)">
       <use xlink:href="#DejaVuSans-72"/>
       <use x="41.113281" xlink:href="#DejaVuSans-69"/>
       <use x="68.896484" xlink:href="#DejaVuSans-70"/>
       <use x="132.373047" xlink:href="#DejaVuSans-70"/>
       <use x="195.849609" xlink:href="#DejaVuSans-6c"/>
       <use x="223.632812" xlink:href="#DejaVuSans-65"/>
      </g>
     </g>
    </g>
    <g id="xtick_6">
     <g id="line2d_11">
      <path clip-path="url(#p3f5370bc78)" d="M 180.025 376.56 
L 180.025 50.4 
" style="fill:none;stroke:#cbcbcb;"/>
     </g>
     <g id="line2d_12"/>
     <g id="text_6">
      <!-- dash -->
      <defs>
       <path d="M 45.40625 46.390625 
L 45.40625 75.984375 
L 54.390625 75.984375 
L 54.390625 0 
L 45.40625 0 
L 45.40625 8.203125 
Q 42.578125 3.328125 38.25 0.953125 
Q 33.9375 -1.421875 27.875 -1.421875 
Q 17.96875 -1.421875 11.734375 6.484375 
Q 5.515625 14.40625 5.515625 27.296875 
Q 5.515625 40.1875 11.734375 48.09375 
Q 17.96875 56 27.875 56 
Q 33.9375 56 38.25 53.625 
Q 42.578125 51.265625 45.40625 46.390625 
z
M 14.796875 27.296875 
Q 14.796875 17.390625 18.875 11.75 
Q 22.953125 6.109375 30.078125 6.109375 
Q 37.203125 6.109375 41.296875 11.75 
Q 45.40625 17.390625 45.40625 27.296875 
Q 45.40625 37.203125 41.296875 42.84375 
Q 37.203125 48.484375 30.078125 48.484375 
Q 22.953125 48.484375 18.875 42.84375 
Q 14.796875 37.203125 14.796875 27.296875 
z
" id="DejaVuSans-64"/>
      </defs>
      <g transform="translate(182.784375 404.083438)rotate(-90)scale(0.1 -0.1)">
       <use xlink:href="#DejaVuSans-64"/>
       <use x="63.476562" xlink:href="#DejaVuSans-61"/>
       <use x="124.755859" xlink:href="#DejaVuSans-73"/>
       <use x="176.855469" xlink:href="#DejaVuSans-68"/>
      </g>
     </g>
    </g>
    <g id="xtick_7">
     <g id="line2d_13">
      <path clip-path="url(#p3f5370bc78)" d="M 208.497727 376.56 
L 208.497727 50.4 
" style="fill:none;stroke:#cbcbcb;"/>
     </g>
     <g id="line2d_14"/>
     <g id="text_7">
      <!-- litecoin -->
      <g transform="translate(211.257102 416.4225)rotate(-90)scale(0.1 -0.1)">
       <use xlink:href="#DejaVuSans-6c"/>
       <use x="27.783203" xlink:href="#DejaVuSans-69"/>
       <use x="55.566406" xlink:href="#DejaVuSans-74"/>
       <use x="94.775391" xlink:href="#DejaVuSans-65"/>
       <use x="156.298828" xlink:href="#DejaVuSans-63"/>
       <use x="211.279297" xlink:href="#DejaVuSans-6f"/>
       <use x="272.460938" xlink:href="#DejaVuSans-69"/>
       <use x="300.244141" xlink:href="#DejaVuSans-6e"/>
      </g>
     </g>
    </g>
    <g id="xtick_8">
     <g id="line2d_15">
      <path clip-path="url(#p3f5370bc78)" d="M 236.970455 376.56 
L 236.970455 50.4 
" style="fill:none;stroke:#cbcbcb;"/>
     </g>
     <g id="line2d_16"/>
     <g id="text_8">
      <!-- bitcoin-gold -->
      <defs>
       <path d="M 45.40625 27.984375 
Q 45.40625 37.75 41.375 43.109375 
Q 37.359375 48.484375 30.078125 48.484375 
Q 22.859375 48.484375 18.828125 43.109375 
Q 14.796875 37.75 14.796875 27.984375 
Q 14.796875 18.265625 18.828125 12.890625 
Q 22.859375 7.515625 30.078125 7.515625 
Q 37.359375 7.515625 41.375 12.890625 
Q 45.40625 18.265625 45.40625 27.984375 
z
M 54.390625 6.78125 
Q 54.390625 -7.171875 48.1875 -13.984375 
Q 42 -20.796875 29.203125 -20.796875 
Q 24.46875 -20.796875 20.265625 -20.09375 
Q 16.0625 -19.390625 12.109375 -17.921875 
L 12.109375 -9.1875 
Q 16.0625 -11.328125 19.921875 -12.34375 
Q 23.78125 -13.375 27.78125 -13.375 
Q 36.625 -13.375 41.015625 -8.765625 
Q 45.40625 -4.15625 45.40625 5.171875 
L 45.40625 9.625 
Q 42.625 4.78125 38.28125 2.390625 
Q 33.9375 0 27.875 0 
Q 17.828125 0 11.671875 7.65625 
Q 5.515625 15.328125 5.515625 27.984375 
Q 5.515625 40.671875 11.671875 48.328125 
Q 17.828125 56 27.875 56 
Q 33.9375 56 38.28125 53.609375 
Q 42.625 51.21875 45.40625 46.390625 
L 45.40625 54.6875 
L 54.390625 54.6875 
z
" id="DejaVuSans-67"/>
      </defs>
      <g transform="translate(239.72983 439.04125)rotate(-90)scale(0.1 -0.1)">
       <use xlink:href="#DejaVuSans-62"/>
       <use x="63.476562" xlink:href="#DejaVuSans-69"/>
       <use x="91.259766" xlink:href="#DejaVuSans-74"/>
       <use x="130.46875" xlink:href="#DejaVuSans-63"/>
       <use x="185.449219" xlink:href="#DejaVuSans-6f"/>
       <use x="246.630859" xlink:href="#DejaVuSans-69"/>
       <use x="274.414062" xlink:href="#DejaVuSans-6e"/>
       <use x="337.792969" xlink:href="#DejaVuSans-2d"/>
       <use x="373.876953" xlink:href="#DejaVuSans-67"/>
       <use x="437.353516" xlink:href="#DejaVuSans-6f"/>
       <use x="498.535156" xlink:href="#DejaVuSans-6c"/>
       <use x="526.318359" xlink:href="#DejaVuSans-64"/>
      </g>
     </g>
    </g>
    <g id="xtick_9">
     <g id="line2d_17">
      <path clip-path="url(#p3f5370bc78)" d="M 265.443182 376.56 
L 265.443182 50.4 
" style="fill:none;stroke:#cbcbcb;"/>
     </g>
     <g id="line2d_18"/>
     <g id="text_9">
      <!-- monero -->
      <g transform="translate(268.202557 418.636562)rotate(-90)scale(0.1 -0.1)">
       <use xlink:href="#DejaVuSans-6d"/>
       <use x="97.412109" xlink:href="#DejaVuSans-6f"/>
       <use x="158.59375" xlink:href="#DejaVuSans-6e"/>
       <use x="221.972656" xlink:href="#DejaVuSans-65"/>
       <use x="283.496094" xlink:href="#DejaVuSans-72"/>
       <use x="324.578125" xlink:href="#DejaVuSans-6f"/>
      </g>
     </g>
    </g>
    <g id="xtick_10">
     <g id="line2d_19">
      <path clip-path="url(#p3f5370bc78)" d="M 293.915909 376.56 
L 293.915909 50.4 
" style="fill:none;stroke:#cbcbcb;"/>
     </g>
     <g id="line2d_20"/>
     <g id="text_10">
      <!-- cardano -->
      <g transform="translate(296.675284 420.72875)rotate(-90)scale(0.1 -0.1)">
       <use xlink:href="#DejaVuSans-63"/>
       <use x="54.980469" xlink:href="#DejaVuSans-61"/>
       <use x="116.259766" xlink:href="#DejaVuSans-72"/>
       <use x="157.357422" xlink:href="#DejaVuSans-64"/>
       <use x="220.833984" xlink:href="#DejaVuSans-61"/>
       <use x="282.113281" xlink:href="#DejaVuSans-6e"/>
       <use x="345.492188" xlink:href="#DejaVuSans-6f"/>
      </g>
     </g>
    </g>
    <g id="text_11">
     <!-- id -->
     <g transform="translate(160.312699 453.739062)scale(0.12 -0.12)">
      <use xlink:href="#DejaVuSans-69"/>
      <use x="27.783203" xlink:href="#DejaVuSans-64"/>
     </g>
    </g>
   </g>
   <g id="matplotlib.axis_2">
    <g id="ytick_1">
     <g id="line2d_21">
      <path clip-path="url(#p3f5370bc78)" d="M 23.425 333.856245 
L 308.152273 333.856245 
" style="fill:none;stroke:#cbcbcb;"/>
     </g>
     <g id="line2d_22"/>
     <g id="text_12">
      <!-- 0 -->
      <defs>
       <path d="M 31.78125 66.40625 
Q 24.171875 66.40625 20.328125 58.90625 
Q 16.5 51.421875 16.5 36.375 
Q 16.5 21.390625 20.328125 13.890625 
Q 24.171875 6.390625 31.78125 6.390625 
Q 39.453125 6.390625 43.28125 13.890625 
Q 47.125 21.390625 47.125 36.375 
Q 47.125 51.421875 43.28125 58.90625 
Q 39.453125 66.40625 31.78125 66.40625 
z
M 31.78125 74.21875 
Q 44.046875 74.21875 50.515625 64.515625 
Q 56.984375 54.828125 56.984375 36.375 
Q 56.984375 17.96875 50.515625 8.265625 
Q 44.046875 -1.421875 31.78125 -1.421875 
Q 19.53125 -1.421875 13.0625 8.265625 
Q 6.59375 17.96875 6.59375 36.375 
Q 6.59375 54.828125 13.0625 64.515625 
Q 19.53125 74.21875 31.78125 74.21875 
z
" id="DejaVuSans-30"/>
      </defs>
      <g transform="translate(13.5625 337.655464)scale(0.1 -0.1)">
       <use xlink:href="#DejaVuSans-30"/>
      </g>
     </g>
    </g>
    <g id="ytick_2">
     <g id="line2d_23">
      <path clip-path="url(#p3f5370bc78)" d="M 23.425 269.397747 
L 308.152273 269.397747 
" style="fill:none;stroke:#cbcbcb;"/>
     </g>
     <g id="line2d_24"/>
     <g id="text_13">
      <!-- 20 -->
      <defs>
       <path d="M 19.1875 8.296875 
L 53.609375 8.296875 
L 53.609375 0 
L 7.328125 0 
L 7.328125 8.296875 
Q 12.9375 14.109375 22.625 23.890625 
Q 32.328125 33.6875 34.8125 36.53125 
Q 39.546875 41.84375 41.421875 45.53125 
Q 43.3125 49.21875 43.3125 52.78125 
Q 43.3125 58.59375 39.234375 62.25 
Q 35.15625 65.921875 28.609375 65.921875 
Q 23.96875 65.921875 18.8125 64.3125 
Q 13.671875 62.703125 7.8125 59.421875 
L 7.8125 69.390625 
Q 13.765625 71.78125 18.9375 73 
Q 24.125 74.21875 28.421875 74.21875 
Q 39.75 74.21875 46.484375 68.546875 
Q 53.21875 62.890625 53.21875 53.421875 
Q 53.21875 48.921875 51.53125 44.890625 
Q 49.859375 40.875 45.40625 35.40625 
Q 44.1875 33.984375 37.640625 27.21875 
Q 31.109375 20.453125 19.1875 8.296875 
z
" id="DejaVuSans-32"/>
      </defs>
      <g transform="translate(7.2 273.196966)scale(0.1 -0.1)">
       <use xlink:href="#DejaVuSans-32"/>
       <use x="63.623047" xlink:href="#DejaVuSans-30"/>
      </g>
     </g>
    </g>
    <g id="ytick_3">
     <g id="line2d_25">
      <path clip-path="url(#p3f5370bc78)" d="M 23.425 204.939249 
L 308.152273 204.939249 
" style="fill:none;stroke:#cbcbcb;"/>
     </g>
     <g id="line2d_26"/>
     <g id="text_14">
      <!-- 40 -->
      <defs>
       <path d="M 37.796875 64.3125 
L 12.890625 25.390625 
L 37.796875 25.390625 
z
M 35.203125 72.90625 
L 47.609375 72.90625 
L 47.609375 25.390625 
L 58.015625 25.390625 
L 58.015625 17.1875 
L 47.609375 17.1875 
L 47.609375 0 
L 37.796875 0 
L 37.796875 17.1875 
L 4.890625 17.1875 
L 4.890625 26.703125 
z
" id="DejaVuSans-34"/>
      </defs>
      <g transform="translate(7.2 208.738468)scale(0.1 -0.1)">
       <use xlink:href="#DejaVuSans-34"/>
       <use x="63.623047" xlink:href="#DejaVuSans-30"/>
      </g>
     </g>
    </g>
    <g id="ytick_4">
     <g id="line2d_27">
      <path clip-path="url(#p3f5370bc78)" d="M 23.425 140.480751 
L 308.152273 140.480751 
" style="fill:none;stroke:#cbcbcb;"/>
     </g>
     <g id="line2d_28"/>
     <g id="text_15">
      <!-- 60 -->
      <defs>
       <path d="M 33.015625 40.375 
Q 26.375 40.375 22.484375 35.828125 
Q 18.609375 31.296875 18.609375 23.390625 
Q 18.609375 15.53125 22.484375 10.953125 
Q 26.375 6.390625 33.015625 6.390625 
Q 39.65625 6.390625 43.53125 10.953125 
Q 47.40625 15.53125 47.40625 23.390625 
Q 47.40625 31.296875 43.53125 35.828125 
Q 39.65625 40.375 33.015625 40.375 
z
M 52.59375 71.296875 
L 52.59375 62.3125 
Q 48.875 64.0625 45.09375 64.984375 
Q 41.3125 65.921875 37.59375 65.921875 
Q 27.828125 65.921875 22.671875 59.328125 
Q 17.53125 52.734375 16.796875 39.40625 
Q 19.671875 43.65625 24.015625 45.921875 
Q 28.375 48.1875 33.59375 48.1875 
Q 44.578125 48.1875 50.953125 41.515625 
Q 57.328125 34.859375 57.328125 23.390625 
Q 57.328125 12.15625 50.6875 5.359375 
Q 44.046875 -1.421875 33.015625 -1.421875 
Q 20.359375 -1.421875 13.671875 8.265625 
Q 6.984375 17.96875 6.984375 36.375 
Q 6.984375 53.65625 15.1875 63.9375 
Q 23.390625 74.21875 37.203125 74.21875 
Q 40.921875 74.21875 44.703125 73.484375 
Q 48.484375 72.75 52.59375 71.296875 
z
" id="DejaVuSans-36"/>
      </defs>
      <g transform="translate(7.2 144.27997)scale(0.1 -0.1)">
       <use xlink:href="#DejaVuSans-36"/>
       <use x="63.623047" xlink:href="#DejaVuSans-30"/>
      </g>
     </g>
    </g>
    <g id="ytick_5">
     <g id="line2d_29">
      <path clip-path="url(#p3f5370bc78)" d="M 23.425 76.022253 
L 308.152273 76.022253 
" style="fill:none;stroke:#cbcbcb;"/>
     </g>
     <g id="line2d_30"/>
     <g id="text_16">
      <!-- 80 -->
      <defs>
       <path d="M 31.78125 34.625 
Q 24.75 34.625 20.71875 30.859375 
Q 16.703125 27.09375 16.703125 20.515625 
Q 16.703125 13.921875 20.71875 10.15625 
Q 24.75 6.390625 31.78125 6.390625 
Q 38.8125 6.390625 42.859375 10.171875 
Q 46.921875 13.96875 46.921875 20.515625 
Q 46.921875 27.09375 42.890625 30.859375 
Q 38.875 34.625 31.78125 34.625 
z
M 21.921875 38.8125 
Q 15.578125 40.375 12.03125 44.71875 
Q 8.5 49.078125 8.5 55.328125 
Q 8.5 64.0625 14.71875 69.140625 
Q 20.953125 74.21875 31.78125 74.21875 
Q 42.671875 74.21875 48.875 69.140625 
Q 55.078125 64.0625 55.078125 55.328125 
Q 55.078125 49.078125 51.53125 44.71875 
Q 48 40.375 41.703125 38.8125 
Q 48.828125 37.15625 52.796875 32.3125 
Q 56.78125 27.484375 56.78125 20.515625 
Q 56.78125 9.90625 50.3125 4.234375 
Q 43.84375 -1.421875 31.78125 -1.421875 
Q 19.734375 -1.421875 13.25 4.234375 
Q 6.78125 9.90625 6.78125 20.515625 
Q 6.78125 27.484375 10.78125 32.3125 
Q 14.796875 37.15625 21.921875 38.8125 
z
M 18.3125 54.390625 
Q 18.3125 48.734375 21.84375 45.5625 
Q 25.390625 42.390625 31.78125 42.390625 
Q 38.140625 42.390625 41.71875 45.5625 
Q 45.3125 48.734375 45.3125 54.390625 
Q 45.3125 60.0625 41.71875 63.234375 
Q 38.140625 66.40625 31.78125 66.40625 
Q 25.390625 66.40625 21.84375 63.234375 
Q 18.3125 60.0625 18.3125 54.390625 
z
" id="DejaVuSans-38"/>
      </defs>
      <g transform="translate(7.2 79.821472)scale(0.1 -0.1)">
       <use xlink:href="#DejaVuSans-38"/>
       <use x="63.623047" xlink:href="#DejaVuSans-30"/>
      </g>
     </g>
    </g>
   </g>
   <g id="patch_3">
    <path clip-path="url(#p3f5370bc78)" d="M 30.543182 333.856245 
L 44.779545 333.856245 
L 44.779545 310.232206 
L 30.543182 310.232206 
z
" style="fill:#8b0000;"/>
   </g>
   <g id="patch_4">
    <path clip-path="url(#p3f5370bc78)" d="M 59.015909 333.856245 
L 73.252273 333.856245 
L 73.252273 346.52234 
L 59.015909 346.52234 
z
" style="fill:#8b0000;"/>
   </g>
   <g id="patch_5">
    <path clip-path="url(#p3f5370bc78)" d="M 87.488636 333.856245 
L 101.725 333.856245 
L 101.725 351.614561 
L 87.488636 351.614561 
z
" style="fill:#8b0000;"/>
   </g>
   <g id="patch_6">
    <path clip-path="url(#p3f5370bc78)" d="M 115.961364 333.856245 
L 130.197727 333.856245 
L 130.197727 65.225455 
L 115.961364 65.225455 
z
" style="fill:#8b0000;"/>
   </g>
   <g id="patch_7">
    <path clip-path="url(#p3f5370bc78)" d="M 144.434091 333.856245 
L 158.670455 333.856245 
L 158.670455 345.781067 
L 144.434091 345.781067 
z
" style="fill:#8b0000;"/>
   </g>
   <g id="patch_8">
    <path clip-path="url(#p3f5370bc78)" d="M 172.906818 333.856245 
L 187.143182 333.856245 
L 187.143182 344.524126 
L 172.906818 344.524126 
z
" style="fill:#8b0000;"/>
   </g>
   <g id="patch_9">
    <path clip-path="url(#p3f5370bc78)" d="M 201.379545 333.856245 
L 215.615909 333.856245 
L 215.615909 331.277905 
L 201.379545 331.277905 
z
" style="fill:#8b0000;"/>
   </g>
   <g id="patch_10">
    <path clip-path="url(#p3f5370bc78)" d="M 229.852273 333.856245 
L 244.088636 333.856245 
L 244.088636 361.734545 
L 229.852273 361.734545 
z
" style="fill:#8b0000;"/>
   </g>
   <g id="patch_11">
    <path clip-path="url(#p3f5370bc78)" d="M 258.325 333.856245 
L 272.561364 333.856245 
L 272.561364 251.188221 
L 258.325 251.188221 
z
" style="fill:#8b0000;"/>
   </g>
   <g id="patch_12">
    <path clip-path="url(#p3f5370bc78)" d="M 286.797727 333.856245 
L 301.034091 333.856245 
L 301.034091 352.549209 
L 286.797727 352.549209 
z
" style="fill:#8b0000;"/>
   </g>
   <g id="patch_13">
    <path d="M 23.425 376.56 
L 23.425 50.4 
" style="fill:none;stroke:#f0f0f0;stroke-linecap:square;stroke-linejoin:miter;stroke-width:3;"/>
   </g>
   <g id="patch_14">
    <path d="M 308.152273 376.56 
L 308.152273 50.4 
" style="fill:none;stroke:#f0f0f0;stroke-linecap:square;stroke-linejoin:miter;stroke-width:3;"/>
   </g>
   <g id="patch_15">
    <path d="M 23.425 376.56 
L 308.152273 376.56 
" style="fill:none;stroke:#f0f0f0;stroke-linecap:square;stroke-linejoin:miter;stroke-width:3;"/>
   </g>
   <g id="patch_16">
    <path d="M 23.425 50.4 
L 308.152273 50.4 
" style="fill:none;stroke:#f0f0f0;stroke-linecap:square;stroke-linejoin:miter;stroke-width:3;"/>
   </g>
  </g>
  <g id="axes_2">
   <g id="patch_17">
    <path d="M 365.097727 376.56 
L 649.825 376.56 
L 649.825 50.4 
L 365.097727 50.4 
z
" style="fill:#f0f0f0;"/>
   </g>
   <g id="matplotlib.axis_3">
    <g id="xtick_11">
     <g id="line2d_31">
      <path clip-path="url(#pe001ea5603)" d="M 379.334091 376.56 
L 379.334091 50.4 
" style="fill:none;stroke:#cbcbcb;"/>
     </g>
     <g id="line2d_32"/>
     <g id="text_17">
      <!-- psilocybin -->
      <defs>
       <path d="M 32.171875 -5.078125 
Q 28.375 -14.84375 24.75 -17.8125 
Q 21.140625 -20.796875 15.09375 -20.796875 
L 7.90625 -20.796875 
L 7.90625 -13.28125 
L 13.1875 -13.28125 
Q 16.890625 -13.28125 18.9375 -11.515625 
Q 21 -9.765625 23.484375 -3.21875 
L 25.09375 0.875 
L 2.984375 54.6875 
L 12.5 54.6875 
L 29.59375 11.921875 
L 46.6875 54.6875 
L 56.203125 54.6875 
z
" id="DejaVuSans-79"/>
      </defs>
      <g transform="translate(382.093466 430.174062)rotate(-90)scale(0.1 -0.1)">
       <use xlink:href="#DejaVuSans-70"/>
       <use x="63.476562" xlink:href="#DejaVuSans-73"/>
       <use x="115.576172" xlink:href="#DejaVuSans-69"/>
       <use x="143.359375" xlink:href="#DejaVuSans-6c"/>
       <use x="171.142578" xlink:href="#DejaVuSans-6f"/>
       <use x="232.324219" xlink:href="#DejaVuSans-63"/>
       <use x="287.304688" xlink:href="#DejaVuSans-79"/>
       <use x="346.484375" xlink:href="#DejaVuSans-62"/>
       <use x="409.960938" xlink:href="#DejaVuSans-69"/>
       <use x="437.744141" xlink:href="#DejaVuSans-6e"/>
      </g>
     </g>
    </g>
    <g id="xtick_12">
     <g id="line2d_33">
      <path clip-path="url(#pe001ea5603)" d="M 407.806818 376.56 
L 407.806818 50.4 
" style="fill:none;stroke:#cbcbcb;"/>
     </g>
     <g id="line2d_34"/>
     <g id="text_18">
      <!-- safecoin -->
      <defs>
       <path d="M 37.109375 75.984375 
L 37.109375 68.5 
L 28.515625 68.5 
Q 23.6875 68.5 21.796875 66.546875 
Q 19.921875 64.59375 19.921875 59.515625 
L 19.921875 54.6875 
L 34.71875 54.6875 
L 34.71875 47.703125 
L 19.921875 47.703125 
L 19.921875 0 
L 10.890625 0 
L 10.890625 47.703125 
L 2.296875 47.703125 
L 2.296875 54.6875 
L 10.890625 54.6875 
L 10.890625 58.5 
Q 10.890625 67.625 15.140625 71.796875 
Q 19.390625 75.984375 28.609375 75.984375 
z
" id="DejaVuSans-66"/>
      </defs>
      <g transform="translate(410.566193 421.80375)rotate(-90)scale(0.1 -0.1)">
       <use xlink:href="#DejaVuSans-73"/>
       <use x="52.099609" xlink:href="#DejaVuSans-61"/>
       <use x="113.378906" xlink:href="#DejaVuSans-66"/>
       <use x="148.583984" xlink:href="#DejaVuSans-65"/>
       <use x="210.107422" xlink:href="#DejaVuSans-63"/>
       <use x="265.087891" xlink:href="#DejaVuSans-6f"/>
       <use x="326.269531" xlink:href="#DejaVuSans-69"/>
       <use x="354.052734" xlink:href="#DejaVuSans-6e"/>
      </g>
     </g>
    </g>
    <g id="xtick_13">
     <g id="line2d_35">
      <path clip-path="url(#pe001ea5603)" d="M 436.279545 376.56 
L 436.279545 50.4 
" style="fill:none;stroke:#cbcbcb;"/>
     </g>
     <g id="line2d_36"/>
     <g id="text_19">
      <!-- pokecoin -->
      <defs>
       <path d="M 9.078125 75.984375 
L 18.109375 75.984375 
L 18.109375 31.109375 
L 44.921875 54.6875 
L 56.390625 54.6875 
L 27.390625 29.109375 
L 57.625 0 
L 45.90625 0 
L 18.109375 26.703125 
L 18.109375 0 
L 9.078125 0 
z
" id="DejaVuSans-6b"/>
      </defs>
      <g transform="translate(439.03892 425.199062)rotate(-90)scale(0.1 -0.1)">
       <use xlink:href="#DejaVuSans-70"/>
       <use x="63.476562" xlink:href="#DejaVuSans-6f"/>
       <use x="124.658203" xlink:href="#DejaVuSans-6b"/>
       <use x="182.521484" xlink:href="#DejaVuSans-65"/>
       <use x="244.044922" xlink:href="#DejaVuSans-63"/>
       <use x="299.025391" xlink:href="#DejaVuSans-6f"/>
       <use x="360.207031" xlink:href="#DejaVuSans-69"/>
       <use x="387.990234" xlink:href="#DejaVuSans-6e"/>
      </g>
     </g>
    </g>
    <g id="xtick_14">
     <g id="line2d_37">
      <path clip-path="url(#pe001ea5603)" d="M 464.752273 376.56 
L 464.752273 50.4 
" style="fill:none;stroke:#cbcbcb;"/>
     </g>
     <g id="line2d_38"/>
     <g id="text_20">
      <!-- omicron -->
      <g transform="translate(467.511648 420.76)rotate(-90)scale(0.1 -0.1)">
       <use xlink:href="#DejaVuSans-6f"/>
       <use x="61.181641" xlink:href="#DejaVuSans-6d"/>
       <use x="158.59375" xlink:href="#DejaVuSans-69"/>
       <use x="186.376953" xlink:href="#DejaVuSans-63"/>
       <use x="241.357422" xlink:href="#DejaVuSans-72"/>
       <use x="282.439453" xlink:href="#DejaVuSans-6f"/>
       <use x="343.621094" xlink:href="#DejaVuSans-6e"/>
      </g>
     </g>
    </g>
    <g id="xtick_15">
     <g id="line2d_39">
      <path clip-path="url(#pe001ea5603)" d="M 493.225 376.56 
L 493.225 50.4 
" style="fill:none;stroke:#cbcbcb;"/>
     </g>
     <g id="line2d_40"/>
     <g id="text_21">
      <!-- pinkdog -->
      <g transform="translate(495.984375 420.130313)rotate(-90)scale(0.1 -0.1)">
       <use xlink:href="#DejaVuSans-70"/>
       <use x="63.476562" xlink:href="#DejaVuSans-69"/>
       <use x="91.259766" xlink:href="#DejaVuSans-6e"/>
       <use x="154.638672" xlink:href="#DejaVuSans-6b"/>
       <use x="212.548828" xlink:href="#DejaVuSans-64"/>
       <use x="276.025391" xlink:href="#DejaVuSans-6f"/>
       <use x="337.207031" xlink:href="#DejaVuSans-67"/>
      </g>
     </g>
    </g>
    <g id="xtick_16">
     <g id="line2d_41">
      <path clip-path="url(#pe001ea5603)" d="M 521.697727 376.56 
L 521.697727 50.4 
" style="fill:none;stroke:#cbcbcb;"/>
     </g>
     <g id="line2d_42"/>
     <g id="text_22">
      <!-- zsecoin -->
      <defs>
       <path d="M 5.515625 54.6875 
L 48.1875 54.6875 
L 48.1875 46.484375 
L 14.40625 7.171875 
L 48.1875 7.171875 
L 48.1875 0 
L 4.296875 0 
L 4.296875 8.203125 
L 38.09375 47.515625 
L 5.515625 47.515625 
z
" id="DejaVuSans-7a"/>
      </defs>
      <g transform="translate(524.457102 417.40375)rotate(-90)scale(0.1 -0.1)">
       <use xlink:href="#DejaVuSans-7a"/>
       <use x="52.490234" xlink:href="#DejaVuSans-73"/>
       <use x="104.589844" xlink:href="#DejaVuSans-65"/>
       <use x="166.113281" xlink:href="#DejaVuSans-63"/>
       <use x="221.09375" xlink:href="#DejaVuSans-6f"/>
       <use x="282.275391" xlink:href="#DejaVuSans-69"/>
       <use x="310.058594" xlink:href="#DejaVuSans-6e"/>
      </g>
     </g>
    </g>
    <g id="xtick_17">
     <g id="line2d_43">
      <path clip-path="url(#pe001ea5603)" d="M 550.170455 376.56 
L 550.170455 50.4 
" style="fill:none;stroke:#cbcbcb;"/>
     </g>
     <g id="line2d_44"/>
     <g id="text_23">
      <!-- tyrocoin -->
      <g transform="translate(552.92983 420.858438)rotate(-90)scale(0.1 -0.1)">
       <use xlink:href="#DejaVuSans-74"/>
       <use x="39.208984" xlink:href="#DejaVuSans-79"/>
       <use x="98.388672" xlink:href="#DejaVuSans-72"/>
       <use x="139.470703" xlink:href="#DejaVuSans-6f"/>
       <use x="200.652344" xlink:href="#DejaVuSans-63"/>
       <use x="255.632812" xlink:href="#DejaVuSans-6f"/>
       <use x="316.814453" xlink:href="#DejaVuSans-69"/>
       <use x="344.597656" xlink:href="#DejaVuSans-6e"/>
      </g>
     </g>
    </g>
    <g id="xtick_18">
     <g id="line2d_45">
      <path clip-path="url(#pe001ea5603)" d="M 578.643182 376.56 
L 578.643182 50.4 
" style="fill:none;stroke:#cbcbcb;"/>
     </g>
     <g id="line2d_46"/>
     <g id="text_24">
      <!-- birds -->
      <g transform="translate(581.402557 404.85375)rotate(-90)scale(0.1 -0.1)">
       <use xlink:href="#DejaVuSans-62"/>
       <use x="63.476562" xlink:href="#DejaVuSans-69"/>
       <use x="91.259766" xlink:href="#DejaVuSans-72"/>
       <use x="132.357422" xlink:href="#DejaVuSans-64"/>
       <use x="195.833984" xlink:href="#DejaVuSans-73"/>
      </g>
     </g>
    </g>
    <g id="xtick_19">
     <g id="line2d_47">
      <path clip-path="url(#pe001ea5603)" d="M 607.115909 376.56 
L 607.115909 50.4 
" style="fill:none;stroke:#cbcbcb;"/>
     </g>
     <g id="line2d_48"/>
     <g id="text_25">
      <!-- bitcoincashscrypt -->
      <g transform="translate(609.875284 468.019375)rotate(-90)scale(0.1 -0.1)">
       <use xlink:href="#DejaVuSans-62"/>
       <use x="63.476562" xlink:href="#DejaVuSans-69"/>
       <use x="91.259766" xlink:href="#DejaVuSans-74"/>
       <use x="130.46875" xlink:href="#DejaVuSans-63"/>
       <use x="185.449219" xlink:href="#DejaVuSans-6f"/>
       <use x="246.630859" xlink:href="#DejaVuSans-69"/>
       <use x="274.414062" xlink:href="#DejaVuSans-6e"/>
       <use x="337.792969" xlink:href="#DejaVuSans-63"/>
       <use x="392.773438" xlink:href="#DejaVuSans-61"/>
       <use x="454.052734" xlink:href="#DejaVuSans-73"/>
       <use x="506.152344" xlink:href="#DejaVuSans-68"/>
       <use x="569.53125" xlink:href="#DejaVuSans-73"/>
       <use x="621.630859" xlink:href="#DejaVuSans-63"/>
       <use x="676.611328" xlink:href="#DejaVuSans-72"/>
       <use x="717.724609" xlink:href="#DejaVuSans-79"/>
       <use x="776.904297" xlink:href="#DejaVuSans-70"/>
       <use x="840.380859" xlink:href="#DejaVuSans-74"/>
      </g>
     </g>
    </g>
    <g id="xtick_20">
     <g id="line2d_49">
      <path clip-path="url(#pe001ea5603)" d="M 635.588636 376.56 
L 635.588636 50.4 
" style="fill:none;stroke:#cbcbcb;"/>
     </g>
     <g id="line2d_50"/>
     <g id="text_26">
      <!-- swisscoin -->
      <defs>
       <path d="M 4.203125 54.6875 
L 13.1875 54.6875 
L 24.421875 12.015625 
L 35.59375 54.6875 
L 46.1875 54.6875 
L 57.421875 12.015625 
L 68.609375 54.6875 
L 77.59375 54.6875 
L 63.28125 0 
L 52.6875 0 
L 40.921875 44.828125 
L 29.109375 0 
L 18.5 0 
z
" id="DejaVuSans-77"/>
      </defs>
      <g transform="translate(638.348011 427.377187)rotate(-90)scale(0.1 -0.1)">
       <use xlink:href="#DejaVuSans-73"/>
       <use x="52.099609" xlink:href="#DejaVuSans-77"/>
       <use x="133.886719" xlink:href="#DejaVuSans-69"/>
       <use x="161.669922" xlink:href="#DejaVuSans-73"/>
       <use x="213.769531" xlink:href="#DejaVuSans-73"/>
       <use x="265.869141" xlink:href="#DejaVuSans-63"/>
       <use x="320.849609" xlink:href="#DejaVuSans-6f"/>
       <use x="382.03125" xlink:href="#DejaVuSans-69"/>
       <use x="409.814453" xlink:href="#DejaVuSans-6e"/>
      </g>
     </g>
    </g>
    <g id="text_27">
     <!-- id -->
     <g transform="translate(501.985426 481.1375)scale(0.12 -0.12)">
      <use xlink:href="#DejaVuSans-69"/>
      <use x="27.783203" xlink:href="#DejaVuSans-64"/>
     </g>
    </g>
   </g>
   <g id="matplotlib.axis_4">
    <g id="ytick_6">
     <g id="line2d_51">
      <path clip-path="url(#pe001ea5603)" d="M 365.097727 364.976166 
L 649.825 364.976166 
" style="fill:none;stroke:#cbcbcb;"/>
     </g>
     <g id="line2d_52"/>
     <g id="text_28">
      <!-- −80 -->
      <defs>
       <path d="M 10.59375 35.5 
L 73.1875 35.5 
L 73.1875 27.203125 
L 10.59375 27.203125 
z
" id="DejaVuSans-2212"/>
      </defs>
      <g transform="translate(340.49304 368.775385)scale(0.1 -0.1)">
       <use xlink:href="#DejaVuSans-2212"/>
       <use x="83.789062" xlink:href="#DejaVuSans-38"/>
       <use x="147.412109" xlink:href="#DejaVuSans-30"/>
      </g>
     </g>
    </g>
    <g id="ytick_7">
     <g id="line2d_53">
      <path clip-path="url(#pe001ea5603)" d="M 365.097727 298.820635 
L 649.825 298.820635 
" style="fill:none;stroke:#cbcbcb;"/>
     </g>
     <g id="line2d_54"/>
     <g id="text_29">
      <!-- −60 -->
      <g transform="translate(340.49304 302.619854)scale(0.1 -0.1)">
       <use xlink:href="#DejaVuSans-2212"/>
       <use x="83.789062" xlink:href="#DejaVuSans-36"/>
       <use x="147.412109" xlink:href="#DejaVuSans-30"/>
      </g>
     </g>
    </g>
    <g id="ytick_8">
     <g id="line2d_55">
      <path clip-path="url(#pe001ea5603)" d="M 365.097727 232.665104 
L 649.825 232.665104 
" style="fill:none;stroke:#cbcbcb;"/>
     </g>
     <g id="line2d_56"/>
     <g id="text_30">
      <!-- −40 -->
      <g transform="translate(340.49304 236.464323)scale(0.1 -0.1)">
       <use xlink:href="#DejaVuSans-2212"/>
       <use x="83.789062" xlink:href="#DejaVuSans-34"/>
       <use x="147.412109" xlink:href="#DejaVuSans-30"/>
      </g>
     </g>
    </g>
    <g id="ytick_9">
     <g id="line2d_57">
      <path clip-path="url(#pe001ea5603)" d="M 365.097727 166.509573 
L 649.825 166.509573 
" style="fill:none;stroke:#cbcbcb;"/>
     </g>
     <g id="line2d_58"/>
     <g id="text_31">
      <!-- −20 -->
      <g transform="translate(340.49304 170.308792)scale(0.1 -0.1)">
       <use xlink:href="#DejaVuSans-2212"/>
       <use x="83.789062" xlink:href="#DejaVuSans-32"/>
       <use x="147.412109" xlink:href="#DejaVuSans-30"/>
      </g>
     </g>
    </g>
    <g id="ytick_10">
     <g id="line2d_59">
      <path clip-path="url(#pe001ea5603)" d="M 365.097727 100.354042 
L 649.825 100.354042 
" style="fill:none;stroke:#cbcbcb;"/>
     </g>
     <g id="line2d_60"/>
     <g id="text_32">
      <!-- 0 -->
      <g transform="translate(355.235227 104.15326)scale(0.1 -0.1)">
       <use xlink:href="#DejaVuSans-30"/>
      </g>
     </g>
    </g>
   </g>
   <g id="patch_18">
    <path clip-path="url(#pe001ea5603)" d="M 372.215909 100.354042 
L 386.452273 100.354042 
L 386.452273 102.735641 
L 372.215909 102.735641 
z
" style="fill:#00008b;"/>
   </g>
   <g id="patch_19">
    <path clip-path="url(#pe001ea5603)" d="M 400.688636 100.354042 
L 414.925 100.354042 
L 414.925 104.058751 
L 400.688636 104.058751 
z
" style="fill:#00008b;"/>
   </g>
   <g id="patch_20">
    <path clip-path="url(#pe001ea5603)" d="M 429.161364 100.354042 
L 443.397727 100.354042 
L 443.397727 101.776386 
L 429.161364 101.776386 
z
" style="fill:#00008b;"/>
   </g>
   <g id="patch_21">
    <path clip-path="url(#pe001ea5603)" d="M 457.634091 100.354042 
L 471.870455 100.354042 
L 471.870455 97.41012 
L 457.634091 97.41012 
z
" style="fill:#00008b;"/>
   </g>
   <g id="patch_22">
    <path clip-path="url(#pe001ea5603)" d="M 486.106818 100.354042 
L 500.343182 100.354042 
L 500.343182 88.082191 
L 486.106818 88.082191 
z
" style="fill:#00008b;"/>
   </g>
   <g id="patch_23">
    <path clip-path="url(#pe001ea5603)" d="M 514.579545 100.354042 
L 528.815909 100.354042 
L 528.815909 87.619102 
L 514.579545 87.619102 
z
" style="fill:#00008b;"/>
   </g>
   <g id="patch_24">
    <path clip-path="url(#pe001ea5603)" d="M 543.052273 100.354042 
L 557.288636 100.354042 
L 557.288636 361.734545 
L 543.052273 361.734545 
z
" style="fill:#00008b;"/>
   </g>
   <g id="patch_25">
    <path clip-path="url(#pe001ea5603)" d="M 571.525 100.354042 
L 585.761364 100.354042 
L 585.761364 65.225455 
L 571.525 65.225455 
z
" style="fill:#00008b;"/>
   </g>
   <g id="patch_26">
    <path clip-path="url(#pe001ea5603)" d="M 599.997727 100.354042 
L 614.234091 100.354042 
L 614.234091 224.031807 
L 599.997727 224.031807 
z
" style="fill:#00008b;"/>
   </g>
   <g id="patch_27">
    <path clip-path="url(#pe001ea5603)" d="M 628.470455 100.354042 
L 642.706818 100.354042 
L 642.706818 85.832903 
L 628.470455 85.832903 
z
" style="fill:#00008b;"/>
   </g>
   <g id="patch_28">
    <path d="M 365.097727 376.56 
L 365.097727 50.4 
" style="fill:none;stroke:#f0f0f0;stroke-linecap:square;stroke-linejoin:miter;stroke-width:3;"/>
   </g>
   <g id="patch_29">
    <path d="M 649.825 376.56 
L 649.825 50.4 
" style="fill:none;stroke:#f0f0f0;stroke-linecap:square;stroke-linejoin:miter;stroke-width:3;"/>
   </g>
   <g id="patch_30">
    <path d="M 365.097727 376.56 
L 649.825 376.56 
" style="fill:none;stroke:#f0f0f0;stroke-linecap:square;stroke-linejoin:miter;stroke-width:3;"/>
   </g>
   <g id="patch_31">
    <path d="M 365.097727 50.4 
L 649.825 50.4 
" style="fill:none;stroke:#f0f0f0;stroke-linecap:square;stroke-linejoin:miter;stroke-width:3;"/>
   </g>
  </g>
  <g id="text_33">
   <!-- 24 hours top losers and winners -->
   <defs>
    <path id="DejaVuSans-20"/>
   </defs>
   <g transform="translate(229.455625 16.318125)scale(0.12 -0.12)">
    <use xlink:href="#DejaVuSans-32"/>
    <use x="63.623047" xlink:href="#DejaVuSans-34"/>
    <use x="127.246094" xlink:href="#DejaVuSans-20"/>
    <use x="159.033203" xlink:href="#DejaVuSans-68"/>
    <use x="222.412109" xlink:href="#DejaVuSans-6f"/>
    <use x="283.59375" xlink:href="#DejaVuSans-75"/>
    <use x="346.972656" xlink:href="#DejaVuSans-72"/>
    <use x="388.085938" xlink:href="#DejaVuSans-73"/>
    <use x="440.185547" xlink:href="#DejaVuSans-20"/>
    <use x="471.972656" xlink:href="#DejaVuSans-74"/>
    <use x="511.181641" xlink:href="#DejaVuSans-6f"/>
    <use x="572.363281" xlink:href="#DejaVuSans-70"/>
    <use x="635.839844" xlink:href="#DejaVuSans-20"/>
    <use x="667.626953" xlink:href="#DejaVuSans-6c"/>
    <use x="695.410156" xlink:href="#DejaVuSans-6f"/>
    <use x="756.591797" xlink:href="#DejaVuSans-73"/>
    <use x="808.691406" xlink:href="#DejaVuSans-65"/>
    <use x="870.214844" xlink:href="#DejaVuSans-72"/>
    <use x="911.328125" xlink:href="#DejaVuSans-73"/>
    <use x="963.427734" xlink:href="#DejaVuSans-20"/>
    <use x="995.214844" xlink:href="#DejaVuSans-61"/>
    <use x="1056.494141" xlink:href="#DejaVuSans-6e"/>
    <use x="1119.873047" xlink:href="#DejaVuSans-64"/>
    <use x="1183.349609" xlink:href="#DejaVuSans-20"/>
    <use x="1215.136719" xlink:href="#DejaVuSans-77"/>
    <use x="1296.923828" xlink:href="#DejaVuSans-69"/>
    <use x="1324.707031" xlink:href="#DejaVuSans-6e"/>
    <use x="1388.085938" xlink:href="#DejaVuSans-6e"/>
    <use x="1451.464844" xlink:href="#DejaVuSans-65"/>
    <use x="1512.988281" xlink:href="#DejaVuSans-72"/>
    <use x="1554.101562" xlink:href="#DejaVuSans-73"/>
   </g>
  </g>
 </g>
 <defs>
  <clipPath id="p3f5370bc78">
   <rect height="326.16" width="284.727273" x="23.425" y="50.4"/>
  </clipPath>
  <clipPath id="pe001ea5603">
   <rect height="326.16" width="284.727273" x="365.097727" y="50.4"/>
  </clipPath>
 </defs>
</svg>
